<?xml version="1.0" encoding="UTF-8" standalone="no"?>
<!-- Created with Inkscape (http://www.inkscape.org/) -->

<svg
   xmlns:dc="http://purl.org/dc/elements/1.1/"
   xmlns:cc="http://creativecommons.org/ns#"
   xmlns:rdf="http://www.w3.org/1999/02/22-rdf-syntax-ns#"
   xmlns:svg="http://www.w3.org/2000/svg"
   xmlns="http://www.w3.org/2000/svg"
   xmlns:sodipodi="http://sodipodi.sourceforge.net/DTD/sodipodi-0.dtd"
   xmlns:inkscape="http://www.inkscape.org/namespaces/inkscape"
   width="64px"
   height="64px"
   id="svg2985"
   version="1.1"
   inkscape:version="0.48.5 r10040"
   sodipodi:docname="divisions-icon.svg">
  <sodipodi:namedview
     id="base"
     pagecolor="#ffffff"
     bordercolor="#666666"
     borderopacity="1.0"
     inkscape:pageopacity="0.0"
     inkscape:pageshadow="2"
     inkscape:zoom="11"
     inkscape:cx="26.528651"
     inkscape:cy="34.044359"
     inkscape:current-layer="layer1"
     showgrid="true"
     inkscape:document-units="px"
     inkscape:grid-bbox="true"
     inkscape:window-width="1680"
     inkscape:window-height="988"
     inkscape:window-x="-8"
     inkscape:window-y="-8"
     inkscape:window-maximized="1" />
  <defs
     id="defs2987" />
  <metadata
     id="metadata2990">
    <rdf:RDF>
      <cc:Work
         rdf:about="">
        <dc:format>image/svg+xml</dc:format>
        <dc:type
           rdf:resource="http://purl.org/dc/dcmitype/StillImage" />
        <dc:title></dc:title>
      </cc:Work>
    </rdf:RDF>
  </metadata>
  <g
     id="layer1"
     inkscape:label="Layer 1"
     inkscape:groupmode="layer">
    <rect
       style="fill:#80b3ff;fill-opacity:1;stroke:#ffffff;stroke-width:1.03914905;stroke-linecap:round;stroke-miterlimit:4;stroke-opacity:1;stroke-dasharray:none"
       id="rect3765"
       width="69.829956"
       height="65.357582"
       x="-4.5572271"
       y="-0.18181819" />
    <path
       style="fill:#ffffff;fill-opacity:1;stroke:#ffffff;stroke-width:1.98787534;stroke-linecap:round;stroke-linejoin:miter;stroke-miterlimit:4;stroke-opacity:1;stroke-dasharray:none"
       d="m 31.998295,-0.2307274 0,51.5669894"
       id="path2993"
       inkscape:connector-curvature="0" />
    <g
       transform="matrix(0.27755363,0,0,0.27755363,18.085998,52.49458)"
       style="font-size:40px;font-style:normal;font-weight:normal;line-height:125%;letter-spacing:0px;word-spacing:0px;fill:#ffffff;fill-opacity:1;stroke:none;font-family:Sans"
       id="flowRoot3767">
      <path
         d="m -27.632812,31.422939 0,-28.6328124 9.863281,0 c 2.226547,2.86e-5 3.925764,0.1367472 5.097656,0.4101562 1.640605,0.377632 3.0403435,1.0612251 4.1992187,2.0507813 1.510393,1.2760665 2.6399491,2.9069243 3.3886719,4.8925779 0.7486716,1.985697 1.1230201,4.254575 1.1230469,6.806641 -2.68e-5,2.174491 -0.2539328,4.101573 -0.7617187,5.78125 -0.507838,1.679694 -1.1588791,3.069667 -1.953125,4.169922 -0.7942941,1.100264 -1.6634339,1.966148 -2.6074219,2.597656 -0.9440309,0.631512 -2.0833529,1.110027 -3.4179689,1.435547 -1.334652,0.325521 -2.867854,0.488281 -4.599609,0.488281 z m 3.789062,-3.378906 6.113281,0 c 1.888006,3e-6 3.369125,-0.175778 4.44336,-0.527344 1.0742,-0.351558 1.930319,-0.846349 2.568359,-1.484375 0.8984166,-0.898431 1.5982857,-2.106112 2.0996094,-3.623047 0.5012795,-1.516916 0.7519302,-3.356107 0.7519531,-5.517578 -2.29e-5,-2.994774 -0.4915588,-5.296204 -1.4746094,-6.9042968 C -10.32489,8.3793423 -11.51955,7.3018694 -12.925781,6.7549703 -13.941423,6.3643704 -15.575536,6.1690581 -17.828125,6.1690328 l -6.015625,0 z"
         id="path5031"
         inkscape:connector-curvature="0" />
      <path
         d="m 0.84375,6.8330953 0,-4.0429687 3.515625,0 0,4.0429687 z m 0,24.5898437 0,-20.742187 3.515625,0 0,20.742187 z"
         id="path5033"
         inkscape:connector-curvature="0" />
      <path
         d="m 15.492188,31.422939 -7.8906255,-20.742187 3.7109375,0 4.453125,12.421875 c 0.481762,1.341152 0.92447,2.73438 1.328125,4.179687 0.31249,-1.093745 0.748687,-2.408848 1.308594,-3.945312 l 4.609375,-12.65625 3.613281,0 -7.851563,20.742187 z"
         id="path5035"
         inkscape:connector-curvature="0" />
      <path
         d="m 29.75,6.8330953 0,-4.0429687 3.515625,0 0,4.0429687 z m 0,24.5898437 0,-20.742187 3.515625,0 0,20.742187 z"
         id="path5037"
         inkscape:connector-curvature="0" />
      <path
         d="m 37.230469,25.231533 3.476562,-0.546875 c 0.195308,1.393234 0.738927,2.460942 1.63086,3.203125 0.891919,0.74219 2.138663,1.113283 3.740234,1.113281 1.614572,2e-6 2.812487,-0.328773 3.59375,-0.986328 0.781236,-0.657548 1.17186,-1.429032 1.171875,-2.314453 -1.5e-5,-0.794264 -0.345067,-1.419264 -1.035156,-1.875 -0.481784,-0.312492 -1.6797,-0.709627 -3.59375,-1.191406 -2.578133,-0.651033 -4.36524,-1.214183 -5.361328,-1.689454 -0.996098,-0.475249 -1.751306,-1.1328 -2.265625,-1.972656 -0.514325,-0.83983 -0.771487,-1.767564 -0.771485,-2.783203 -2e-6,-0.924463 0.211587,-1.780582 0.634766,-2.568359 0.423174,-0.787742 0.999345,-1.442038 1.728515,-1.962891 0.546871,-0.403626 1.292313,-0.745422 2.236329,-1.025391 0.944003,-0.279926 1.956371,-0.4199 3.037109,-0.419921 1.627593,2.1e-5 3.056628,0.234396 4.287109,0.703125 1.230454,0.46877 2.138656,1.103535 2.72461,1.904296 0.58592,0.800799 0.989566,1.871762 1.210937,3.212891 l -3.4375,0.46875 c -0.156264,-1.067692 -0.608737,-1.901025 -1.357422,-2.5 -0.74871,-0.59894 -1.806651,-0.898419 -3.173828,-0.898437 -1.614591,1.8e-5 -2.766934,0.266945 -3.457031,0.800781 -0.69011,0.533871 -1.035161,1.15887 -1.035156,1.875 -5e-6,0.455744 0.143224,0.8659 0.429687,1.230469 0.286453,0.377618 0.735671,0.690117 1.347656,0.9375 0.351556,0.130221 1.386711,0.4297 3.105469,0.898437 2.486967,0.664074 4.221991,1.207694 5.205078,1.630859 0.983057,0.423188 1.754541,1.038422 2.314453,1.845704 0.559878,0.8073 0.839826,1.809903 0.839844,3.007812 -1.8e-5,1.17188 -0.341815,2.275395 -1.02539,3.310547 -0.683611,1.035158 -1.669938,1.835938 -2.958985,2.402344 -1.289075,0.566406 -2.747407,0.849609 -4.375,0.849609 -2.69532,0 -4.749354,-0.559896 -6.162109,-1.679687 -1.412763,-1.11979 -2.314455,-2.779944 -2.705078,-4.980469 z"
         id="path5039"
         inkscape:connector-curvature="0" />
      <path
         d="m 58.65625,6.8330953 0,-4.0429687 3.515625,0 0,4.0429687 z m 0,24.5898437 0,-20.742187 3.515625,0 0,20.742187 z"
         id="path5041"
         inkscape:connector-curvature="0" />
      <path
         d="m 66.234375,21.051845 c -10e-7,-3.841131 1.067706,-6.686181 3.203125,-8.535156 1.783848,-1.536438 3.958325,-2.304666 6.523437,-2.304687 2.851549,2.1e-5 5.182276,0.934265 6.992188,2.802734 1.809876,1.868506 2.714823,4.449884 2.714844,7.744141 -2.1e-5,2.669278 -0.400411,4.768886 -1.201172,6.298828 -0.8008,1.52995 -1.966164,2.7181 -3.496094,3.564453 -1.529962,0.846354 -3.199883,1.269531 -5.009766,1.269531 -2.903653,0 -5.250656,-0.930989 -7.041015,-2.792969 -1.790367,-1.861975 -2.685548,-4.544264 -2.685547,-8.046875 z m 3.613281,0 c -5e-6,2.656258 0.579422,4.645188 1.738281,5.966797 1.158847,1.321618 2.617179,1.982424 4.375,1.982422 1.744779,2e-6 3.196601,-0.664059 4.355469,-1.992187 1.158838,-1.32812 1.738264,-3.352857 1.738281,-6.074219 -1.7e-5,-2.565091 -0.582698,-4.508449 -1.748046,-5.830078 -1.165379,-1.321597 -2.613945,-1.982404 -4.345704,-1.982422 -1.757821,1.8e-5 -3.216153,0.65757 -4.375,1.972656 -1.158859,1.315119 -1.738286,3.300794 -1.738281,5.957031 z"
         id="path5043"
         inkscape:connector-curvature="0" />
      <path
         d="m 89.808594,31.422939 0,-20.742187 3.164062,0 0,2.949218 c 1.52343,-2.278625 3.723949,-3.417947 6.601563,-3.417968 1.249991,2.1e-5 2.399071,0.22463 3.447261,0.673828 1.04816,0.449239 1.83267,1.038431 2.35352,1.767578 0.52081,0.729185 0.8854,1.595069 1.09375,2.597656 0.13019,0.651057 0.19529,1.790379 0.19531,3.417969 l 0,12.753906 -3.51562,0 0,-12.617187 c -2e-5,-1.432278 -0.13674,-2.503241 -0.41016,-3.212891 -0.27345,-0.709619 -0.75848,-1.276025 -1.45508,-1.699219 -0.69662,-0.423159 -1.513681,-0.634747 -2.451169,-0.634765 -1.497406,1.8e-5 -2.789722,0.475278 -3.876953,1.425781 -1.087246,0.950536 -1.630865,2.75392 -1.630859,5.410156 l 0,11.328125 z"
         id="path5045"
         inkscape:connector-curvature="0" />
      <path
         d="m 110.66797,25.231533 3.47656,-0.546875 c 0.19531,1.393234 0.73893,2.460942 1.63086,3.203125 0.89192,0.74219 2.13866,1.113283 3.74024,1.113281 1.61457,2e-6 2.81248,-0.328773 3.59375,-0.986328 0.78123,-0.657548 1.17186,-1.429032 1.17187,-2.314453 -1e-5,-0.794264 -0.34507,-1.419264 -1.03516,-1.875 -0.48178,-0.312492 -1.6797,-0.709627 -3.59375,-1.191406 -2.57813,-0.651033 -4.36524,-1.214183 -5.36132,-1.689454 -0.9961,-0.475249 -1.75131,-1.1328 -2.26563,-1.972656 -0.51432,-0.83983 -0.77149,-1.767564 -0.77148,-2.783203 -1e-5,-0.924463 0.21158,-1.780582 0.63476,-2.568359 0.42318,-0.787742 0.99935,-1.442038 1.72852,-1.962891 0.54687,-0.403626 1.29231,-0.745422 2.23633,-1.025391 0.944,-0.279926 1.95637,-0.4199 3.03711,-0.419921 1.62759,2.1e-5 3.05662,0.234396 4.2871,0.703125 1.23046,0.46877 2.13866,1.103535 2.72461,1.904296 0.58592,0.800799 0.98957,1.871762 1.21094,3.212891 l -3.4375,0.46875 c -0.15626,-1.067692 -0.60874,-1.901025 -1.35742,-2.5 -0.74871,-0.59894 -1.80665,-0.898419 -3.17383,-0.898437 -1.61459,1.8e-5 -2.76693,0.266945 -3.45703,0.800781 -0.69011,0.533871 -1.03516,1.15887 -1.03516,1.875 0,0.455744 0.14323,0.8659 0.42969,1.230469 0.28645,0.377618 0.73567,0.690117 1.34766,0.9375 0.35155,0.130221 1.38671,0.4297 3.10547,0.898437 2.48696,0.664074 4.22199,1.207694 5.20507,1.630859 0.98306,0.423188 1.75454,1.038422 2.31446,1.845704 0.55988,0.8073 0.83982,1.809903 0.83984,3.007812 -2e-5,1.17188 -0.34181,2.275395 -1.02539,3.310547 -0.68361,1.035158 -1.66994,1.835938 -2.95898,2.402344 -1.28908,0.566406 -2.74741,0.849609 -4.375,0.849609 -2.69532,0 -4.74936,-0.559896 -6.16211,-1.679687 -1.41277,-1.11979 -2.31446,-2.779944 -2.70508,-4.980469 z"
         id="path5047"
         inkscape:connector-curvature="0" />
    </g>
    <g
       id="g4812"
       transform="matrix(0.72824882,0,0,0.72824882,15.031658,15.002217)"
       inkscape:label="Gear8"
       style="fill:#ffffff;fill-opacity:1;stroke:none">
      <path
         id="path4814"
         d="m 9.337,-2.002 2.362,-0.507 0.789,0.025 3.404,1.623 0,1.722 -3.404,1.623 -0.789,0.025 -2.362,-0.507 -1.319,3.184 2.028,1.312 0.541,0.576 1.259,3.555 -1.217,1.217 L 7.074,10.587 6.498,10.046 5.186,8.018 2.002,9.337 l 0.507,2.362 -0.025,0.789 -1.623,3.404 -1.722,0 -1.623,-3.404 -0.025,-0.789 0.507,-2.362 -3.184,-1.319 -1.312,2.028 -0.576,0.541 -3.555,1.259 -1.217,-1.217 1.259,-3.555 0.541,-0.576 2.028,-1.312 -1.319,-3.184 -2.362,0.507 -0.789,-0.025 -3.404,-1.623 0,-1.722 3.404,-1.623 0.789,-0.025 2.362,0.507 1.319,-3.184 -2.028,-1.312 -0.541,-0.576 -1.259,-3.555 1.217,-1.217 3.555,1.259 0.576,0.541 1.312,2.028 3.184,-1.319 -0.507,-2.362 0.025,-0.789 1.623,-3.404 1.722,0 1.623,3.404 0.025,0.789 -0.507,2.362 3.184,1.319 1.312,-2.028 0.576,-0.541 3.555,-1.259 1.217,1.217 -1.259,3.555 -0.541,0.576 -2.028,1.312 z"
         style="fill:#ffffff;stroke:none;fill-opacity:1"
         inkscape:connector-curvature="0" />
    </g>
    <path
       sodipodi:type="arc"
       style="fill:#80b3ff;fill-opacity:1;stroke:none;stroke-opacity:1"
       id="path4834"
       sodipodi:cx="16.318182"
       sodipodi:cy="16.318182"
       sodipodi:rx="5.409091"
       sodipodi:ry="5.409091"
       d="m 21.727273,16.318182 a 5.409091,5.409091 0 1 1 -10.818182,0 5.409091,5.409091 0 1 1 10.818182,0 z"
       transform="matrix(0.66386555,0,0,0.66386555,4.0305576,4.2440792)" />
    <path
       style="fill:#ffffff;fill-opacity:1;stroke:#ffffff;stroke-width:1px;stroke-linecap:butt;stroke-linejoin:miter;stroke-opacity:1"
       d="M 18.636364,35.545455 7.8181818,43.909091 c 0,0 -0.9090909,3 2.0909091,2.727273 L 20.454545,38.090909 c 0,0 5.909091,3.909091 5.181818,-3.545454 L 23.363637,36.909091 19.909091,33.636363 21.181818,32.181819 22.363636,31 c 0,0 -5.545453,0.181819 -3.727272,4.545455 z"
       id="path4838"
       inkscape:connector-curvature="0"
       sodipodi:nodetypes="cccccccccc" />
    <path
       style="fill:#ffffff;fill-opacity:1;stroke:#ffffff;stroke-width:0.1;stroke-linecap:round;stroke-miterlimit:4;stroke-opacity:1;stroke-dasharray:none"
       id="path4850"
       d="m 20.491326,34.696155 c -0.08324,0.156839 -0.04171,0.07519 -0.124028,0.24525 0,0 -1.215194,0.55468 -1.215194,0.55468 l 0,0 c 0.07422,-0.170855 0.03751,-0.08976 0.109506,-0.243567 0,0 1.229716,-0.556363 1.229716,-0.556363 z"
       inkscape:connector-curvature="0" />
    <path
       style="fill:#80b3ff;fill-opacity:1;stroke:#ffffff;stroke-width:1px;stroke-linecap:butt;stroke-linejoin:miter;stroke-opacity:1"
       d="M 11.4375 41.375 L 8 44.03125 C 7.9759161 44.118931 7.8123069 44.710495 7.9375 45.3125 C 8.0046848 45.635566 8.1493176 45.949169 8.4375 46.15625 C 8.7154425 46.355973 9.1384258 46.487141 9.8125 46.4375 L 13.28125 43.625 L 11.4375 41.375 z "
       id="path4872" />
    <path
       sodipodi:type="arc"
       style="fill:#80b3ff;fill-opacity:1;stroke:none"
       id="path4906"
       sodipodi:cx="56.5"
       sodipodi:cy="24.454546"
       sodipodi:rx="0.95454544"
       sodipodi:ry="2.5454545"
       d="m 57.454545,24.454546 a 0.95454544,2.5454545 0 0 1 -0.0026,0.187118"
       sodipodi:start="0"
       sodipodi:end="0.073577017"
       sodipodi:open="true" />
    <g
       id="g5018">
      <g
         transform="translate(-0.81818182,-7.5454545)"
         id="g4938">
        <path
           style="fill:#ffffff;fill-opacity:1;stroke:none"
           d="m 46.454546,22 c 0,0 -7.454546,-6.636364 5.090909,-7.909091 12.545454,-1.272727 8.363636,12.454546 8.363636,12.454546 0,0 -1.545455,5.363636 -4.363637,6.818181 -2.767546,1.428411 -2.80988,-5.032047 -3.237166,-6.689569 -0.687785,-2.668046 -3.03556,-3.492249 -3.03556,-3.492249 z"
           id="path4884"
           inkscape:connector-curvature="0"
           sodipodi:nodetypes="cscsscc" />
        <path
           sodipodi:type="arc"
           style="fill:#80b3ff;fill-opacity:1;stroke:none"
           id="path4886"
           sodipodi:cx="49.409092"
           sodipodi:cy="18.227272"
           sodipodi:rx="2.0454545"
           sodipodi:ry="1.0454545"
           d="m 51.454546,18.227272 c 0,0.577389 -0.915781,1.045455 -2.045454,1.045455 -1.129673,0 -2.045455,-0.468066 -2.045455,-1.045455 0,-0.577389 0.915782,-1.045454 2.045455,-1.045454 1.129673,0 2.045454,0.468065 2.045454,1.045454 z"
           transform="matrix(0.97180168,-0.2357997,0.2357997,0.97180168,-3.2683682,10.710082)"
           inkscape:transform-center-y="0.63636364" />
        <path
           sodipodi:type="arc"
           style="fill:#80b3ff;fill-opacity:1;stroke:none"
           id="path4886-5"
           sodipodi:cx="49.409092"
           sodipodi:cy="18.227272"
           sodipodi:rx="2.0454545"
           sodipodi:ry="1.0454545"
           d="m 51.454546,18.227272 c 0,0.577389 -0.915781,1.045455 -2.045454,1.045455 -1.129673,0 -2.045455,-0.468066 -2.045455,-1.045455 0,-0.577389 0.915782,-1.045454 2.045455,-1.045454 1.129673,0 2.045454,0.468065 2.045454,1.045454 z"
           transform="matrix(0.95736203,0.28889088,-0.28889088,0.95736203,13.004628,-15.084324)"
           inkscape:transform-center-y="0.54870132"
           inkscape:transform-center-x="0.32231243" />
        <path
           sodipodi:type="arc"
           style="fill:#80b3ff;fill-opacity:1;stroke:none"
           id="path4910"
           sodipodi:cx="62.272728"
           sodipodi:cy="29.454546"
           sodipodi:rx="2.727273"
           sodipodi:ry="2.5454547"
           d="m 64.96911,29.836576 c -0.22606,1.389893 -1.616529,2.345583 -3.1057,2.134593 -1.489171,-0.210989 -2.513124,-1.50876 -2.287064,-2.898653 0.22606,-1.389893 1.616529,-2.345583 3.1057,-2.134593 1.408643,0.19958 2.415313,1.377543 2.310576,2.703741"
           sodipodi:start="0.15065246"
           sodipodi:end="6.3567623"
           sodipodi:open="true"
           transform="matrix(0.43338293,0,0,0.66076122,30.921076,1.4921241)" />
        <path
           sodipodi:type="arc"
           style="fill:#80b3ff;fill-opacity:1;stroke:none"
           id="path4886-5-1"
           sodipodi:cx="49.409092"
           sodipodi:cy="18.227272"
           sodipodi:rx="2.0454545"
           sodipodi:ry="1.0454545"
           d="m 51.454546,18.227272 c 0,0.577389 -0.915781,1.045455 -2.045454,1.045455 -1.129673,0 -2.045455,-0.468066 -2.045455,-1.045455 0,-0.577389 0.915782,-1.045454 2.045455,-1.045454 1.129673,0 2.045454,0.468065 2.045454,1.045454 z"
           transform="matrix(-0.47978726,0.87738485,-0.87738485,-0.47978726,96.186264,-8.1280976)"
           inkscape:transform-center-x="2.8342329" />
      </g>
      <g
         id="g5013">
        <path
           style="fill:#80b3ff;fill-opacity:1;stroke:#ffffff;stroke-width:0.60000002;stroke-linecap:butt;stroke-linejoin:miter;stroke-miterlimit:4;stroke-opacity:1;stroke-dasharray:none"
           d="m 62.545454,5.4545454 c 0,0 -12.545455,3.3636361 -16.454545,9.9999996 0,0 -2.454545,-0.90909 -3.272727,1.727273 -0.818182,2.636364 -0.807626,2.824169 -0.807626,2.824169 0,0 5.046102,-1.316062 5.443988,-2.64235 0.818183,-2.727273 5.454546,1.727272 15.09091,-11.9090916 z"
           id="path4945"
           inkscape:connector-curvature="0"
           sodipodi:nodetypes="ccscsc" />
        <path
           style="fill:none;stroke:#ffffff;stroke-width:0.50644624;stroke-linecap:round;stroke-linejoin:miter;stroke-miterlimit:4;stroke-opacity:1;stroke-dasharray:none"
           d="m 45.953223,15.589587 c 0,0 0.858558,1.198935 2.25426,0.819246"
           id="path4947"
           inkscape:connector-curvature="0"
           sodipodi:nodetypes="cc" />
        <path
           style="fill:none;stroke:#ffffff;stroke-width:0.55138463;stroke-linecap:round;stroke-linejoin:miter;stroke-miterlimit:4;stroke-opacity:1;stroke-dasharray:none"
           d="m 45.337944,16.038597 c 0,0 -1.451943,-0.46968 -2.183687,2.518349"
           id="path4949"
           inkscape:connector-curvature="0"
           sodipodi:nodetypes="cc" />
      </g>
    </g>
    <path
       style="fill:none;stroke:#ffffff;stroke-width:1px;stroke-linecap:round;stroke-linejoin:miter;stroke-opacity:1"
       d="m 37.636364,30.454545 -0.181819,13.181819 19.818182,0"
       id="path5001"
       inkscape:connector-curvature="0" />
    <path
       style="fill:none;stroke:#ffffff;stroke-width:1.4;stroke-linecap:butt;stroke-linejoin:miter;stroke-opacity:1;stroke-miterlimit:4;stroke-dasharray:none"
       d="M 37.454545,43.545455 41,39.909091 l 3.454545,1.909091 2.545455,-7 2.090909,3.272727 5,-6.090909 L 55,33.636364 57.818182,28.818182"
       id="path5003"
       inkscape:connector-curvature="0"
       sodipodi:nodetypes="cccccccc" />
    <path
       sodipodi:type="star"
       style="fill:#80b3ff;fill-opacity:1;stroke:#ffffff;stroke-width:0.89999998;stroke-linecap:round;stroke-miterlimit:4;stroke-opacity:1;stroke-dasharray:none"
       id="path5007"
       sodipodi:sides="3"
       sodipodi:cx="58.079182"
       sodipodi:cy="27.680424"
       sodipodi:r1="0.7780565"
       sodipodi:r2="0.38902825"
       sodipodi:arg1="-0.90250691"
       sodipodi:arg2="0.14469064"
       inkscape:flatsided="true"
       inkscape:rounded="0"
       inkscape:randomized="0"
       d="m 58.5613,27.069741 -0.19431,1.333551 -1.057735,-0.835053 z"
       inkscape:transform-center-x="0.1795169"
       inkscape:transform-center-y="0.017100721"
       transform="matrix(0.99493208,-0.10054925,0.10054925,0.99493208,-2.5531879,6.8479134)" />
  </g>
</svg>
