<?xml version="1.0" encoding="UTF-8" standalone="no"?>
<!-- Created with Inkscape (http://www.inkscape.org/) -->

<svg
   xmlns:dc="http://purl.org/dc/elements/1.1/"
   xmlns:cc="http://creativecommons.org/ns#"
   xmlns:rdf="http://www.w3.org/1999/02/22-rdf-syntax-ns#"
   xmlns:svg="http://www.w3.org/2000/svg"
   xmlns="http://www.w3.org/2000/svg"
   xmlns:sodipodi="http://sodipodi.sourceforge.net/DTD/sodipodi-0.dtd"
   xmlns:inkscape="http://www.inkscape.org/namespaces/inkscape"
   width="16px"
   height="16px"
   id="svg3035"
   version="1.1"
   inkscape:version="0.48.5 r10040"
   sodipodi:docname="New document 2">
  <defs
     id="defs3037" />
  <sodipodi:namedview
     id="base"
     pagecolor="#ffffff"
     bordercolor="#666666"
     borderopacity="1.0"
     inkscape:pageopacity="0.0"
     inkscape:pageshadow="2"
     inkscape:zoom="11.098901"
     inkscape:cx="5.1330647"
     inkscape:cy="9.0583587"
     inkscape:current-layer="layer1"
     showgrid="true"
     inkscape:grid-bbox="true"
     inkscape:document-units="px"
     inkscape:window-width="463"
     inkscape:window-height="453"
     inkscape:window-x="75"
     inkscape:window-y="75"
     inkscape:window-maximized="0" />
  <metadata
     id="metadata3040">
    <rdf:RDF>
      <cc:Work
         rdf:about="">
        <dc:format>image/svg+xml</dc:format>
        <dc:type
           rdf:resource="http://purl.org/dc/dcmitype/StillImage" />
        <dc:title></dc:title>
      </cc:Work>
    </rdf:RDF>
  </metadata>
  <g
     id="layer1"
     inkscape:label="Layer 1"
     inkscape:groupmode="layer">
    <g
       id="g5018"
       transform="translate(-43.538398,-7.3822309)">
      <g
         transform="translate(-0.81818182,-7.5454545)"
         id="g4938">
        <path
           style="fill:#ffffff;fill-opacity:1;stroke:none"
           d="m 46.454546,22 c 0,0 -7.454546,-6.636364 5.090909,-7.909091 12.545454,-1.272727 8.363636,12.454546 8.363636,12.454546 0,0 -1.545455,5.363636 -4.363637,6.818181 -2.767546,1.428411 -2.80988,-5.032047 -3.237166,-6.689569 -0.687785,-2.668046 -3.03556,-3.492249 -3.03556,-3.492249 z"
           id="path4884"
           inkscape:connector-curvature="0"
           sodipodi:nodetypes="cscsscc" />
        <path
           sodipodi:type="arc"
           style="fill:#80b3ff;fill-opacity:1;stroke:none"
           id="path4886"
           sodipodi:cx="49.409092"
           sodipodi:cy="18.227272"
           sodipodi:rx="2.0454545"
           sodipodi:ry="1.0454545"
           d="m 51.454546,18.227272 c 0,0.577389 -0.915781,1.045455 -2.045454,1.045455 -1.129673,0 -2.045455,-0.468066 -2.045455,-1.045455 0,-0.577389 0.915782,-1.045454 2.045455,-1.045454 1.129673,0 2.045454,0.468065 2.045454,1.045454 z"
           transform="matrix(0.97180168,-0.2357997,0.2357997,0.97180168,-3.2683682,10.710082)"
           inkscape:transform-center-y="0.63636364" />
        <path
           sodipodi:type="arc"
           style="fill:#80b3ff;fill-opacity:1;stroke:none"
           id="path4886-5"
           sodipodi:cx="49.409092"
           sodipodi:cy="18.227272"
           sodipodi:rx="2.0454545"
           sodipodi:ry="1.0454545"
           d="m 51.454546,18.227272 c 0,0.577389 -0.915781,1.045455 -2.045454,1.045455 -1.129673,0 -2.045455,-0.468066 -2.045455,-1.045455 0,-0.577389 0.915782,-1.045454 2.045455,-1.045454 1.129673,0 2.045454,0.468065 2.045454,1.045454 z"
           transform="matrix(0.95736203,0.28889088,-0.28889088,0.95736203,13.004628,-15.084324)"
           inkscape:transform-center-y="0.54870132"
           inkscape:transform-center-x="0.32231243" />
        <path
           sodipodi:type="arc"
           style="fill:#80b3ff;fill-opacity:1;stroke:none"
           id="path4910"
           sodipodi:cx="62.272728"
           sodipodi:cy="29.454546"
           sodipodi:rx="2.727273"
           sodipodi:ry="2.5454547"
           d="m 64.96911,29.836576 c -0.22606,1.389893 -1.616529,2.345583 -3.1057,2.134593 -1.489171,-0.210989 -2.513124,-1.50876 -2.287064,-2.898653 0.22606,-1.389893 1.616529,-2.345583 3.1057,-2.134593 1.408643,0.19958 2.415313,1.377543 2.310576,2.703741"
           sodipodi:start="0.15065246"
           sodipodi:end="6.3567623"
           sodipodi:open="true"
           transform="matrix(0.43338293,0,0,0.66076122,30.921076,1.4921241)" />
        <path
           sodipodi:type="arc"
           style="fill:#80b3ff;fill-opacity:1;stroke:none"
           id="path4886-5-1"
           sodipodi:cx="49.409092"
           sodipodi:cy="18.227272"
           sodipodi:rx="2.0454545"
           sodipodi:ry="1.0454545"
           d="m 51.454546,18.227272 c 0,0.577389 -0.915781,1.045455 -2.045454,1.045455 -1.129673,0 -2.045455,-0.468066 -2.045455,-1.045455 0,-0.577389 0.915782,-1.045454 2.045455,-1.045454 1.129673,0 2.045454,0.468065 2.045454,1.045454 z"
           transform="matrix(-0.47978726,0.87738485,-0.87738485,-0.47978726,96.186264,-8.1280976)"
           inkscape:transform-center-x="2.8342329" />
      </g>
      <g
         id="g5013">
        <path
           style="fill:#80b3ff;fill-opacity:1;stroke:#ffffff;stroke-width:0.60000002;stroke-linecap:butt;stroke-linejoin:miter;stroke-miterlimit:4;stroke-opacity:1;stroke-dasharray:none"
           d="m 62.545454,5.4545454 c 0,0 -12.545455,3.3636361 -16.454545,9.9999996 0,0 -2.454545,-0.90909 -3.272727,1.727273 -0.818182,2.636364 -0.807626,2.824169 -0.807626,2.824169 0,0 5.046102,-1.316062 5.443988,-2.64235 0.818183,-2.727273 5.454546,1.727272 15.09091,-11.9090916 z"
           id="path4945"
           inkscape:connector-curvature="0"
           sodipodi:nodetypes="ccscsc" />
        <path
           style="fill:none;stroke:#ffffff;stroke-width:0.50644624;stroke-linecap:round;stroke-linejoin:miter;stroke-miterlimit:4;stroke-opacity:1;stroke-dasharray:none"
           d="m 45.953223,15.589587 c 0,0 0.858558,1.198935 2.25426,0.819246"
           id="path4947"
           inkscape:connector-curvature="0"
           sodipodi:nodetypes="cc" />
      </g>
    </g>
  </g>
</svg>
